<svg viewBox="0 0 311.81 190.98" xmlns="http://www.w3.org/2000/svg" xmlns:xlink="http://www.w3.org/1999/xlink"><linearGradient id="a" gradientUnits="userSpaceOnUse" x1="153.44" x2="195.13" y1="71.9" y2="5.07"><stop offset=".1" stop-color="#005ab3"/><stop offset=".47" stop-color="#007fc3"/><stop offset=".89" stop-color="#76aed6"/></linearGradient><linearGradient id="b" gradientUnits="userSpaceOnUse" x1="157.79" x2="172.08" y1="70.98" y2="42.09"><stop offset=".09" stop-color="#001d3d"/><stop offset=".42" stop-color="#002d57"/><stop offset=".97" stop-color="#004875"/></linearGradient><linearGradient id="c" gradientUnits="userSpaceOnUse" x1="253.69" x2="194.43" y1="44.49" y2="71.74"><stop offset="0" stop-color="#408f8c"/><stop offset=".1" stop-color="#408f8c"/><stop offset=".2" stop-color="#549c99"/><stop offset=".46" stop-color="#86bbb8"/><stop offset=".69" stop-color="#abd3d0"/><stop offset=".88" stop-color="#c1e1de"/><stop offset="1" stop-color="#c9e6e3"/></linearGradient><linearGradient id="d" gradientUnits="userSpaceOnUse" x1="254.32" x2="249.1" y1="48.88" y2="101.36"><stop offset="0" stop-color="#034245"/><stop offset=".15" stop-color="#095f66"/><stop offset=".42" stop-color="#30757c"/><stop offset=".81" stop-color="#64939a"/><stop offset="1" stop-color="#789fa5"/></linearGradient><linearGradient id="e" gradientUnits="userSpaceOnUse" x1="184.88" x2="190.76" y1="81.57" y2="46.09"><stop offset="0" stop-color="#00383c"/><stop offset=".46" stop-color="#345e65"/><stop offset="1" stop-color="#69888f"/></linearGradient><linearGradient id="f" gradientUnits="userSpaceOnUse" x1="265.71" x2="64.32" y1="41.44" y2="134.06"><stop offset="0" stop-color="#408e8b"/><stop offset=".1" stop-color="#408e8b"/><stop offset=".19" stop-color="#539a97"/><stop offset=".46" stop-color="#85bab7"/><stop offset=".69" stop-color="#aad1ce"/><stop offset=".88" stop-color="#c0dfdc"/><stop offset="1" stop-color="#c8e4e1"/></linearGradient><path d="m159.54 36.28 25.35 11.05 15.12-47.33z" fill="url(#a)"/><path d="m163.13 73.31 21.76-25.98-25.35-11.05z" fill="url(#b)"/><path d="m243.33 35.89-58.44 11.44 20.82 48.02 38.76-28.61z" fill="url(#c)"/><path d="m243.33 106.19 3.42-3.75 3.35-3.67 3.15-3.5 9.79-42.24-19.71 14.55z" fill="url(#d)"/><path d="m205.71 95.35-20.82-48.02-21.76 25.98z" fill="url(#e)"/><path d="m243.33 35.89v31.69l19.71-14.55z" fill="url(#f)"/><path d="m252 185.93-.09-1.65h-.22a4.28 4.28 0 0 1 -3.82 1.93c-3.62 0-6-2.77-6-7s2.38-6.91 6-6.91a4.31 4.31 0 0 1 3.75 1.86h.21v-6.16h2.07v18zm-4.13-1.58a4 4 0 0 0 3.85-2.91 9.54 9.54 0 0 0 .25-2.25 8.8 8.8 0 0 0 -.28-2.24 4 4 0 0 0 -3.79-2.81c-2.28 0-4 1.93-4 5.05s1.75 5.16 4 5.16zm8.66-15.22a1.48 1.48 0 0 1 3 0 1.48 1.48 0 0 1 -3 0zm2.53 16.8h-2.06v-13.47h2.07zm14.44-13.4v13.68c0 3-2.63 4.77-5.89 4.77a5.94 5.94 0 0 1 -5.19-2.42l1.54-1.23a4.32 4.32 0 0 0 3.65 1.79c2.24 0 3.79-1 3.82-3.37v-1.61h-.24a4.21 4.21 0 0 1 -3.65 1.79c-3.61 0-6.07-2.63-6.07-6.88 0-4.07 2.42-6.77 6.07-6.77a4.21 4.21 0 0 1 3.7 1.76h.19v-1.51zm-6 11.51a3.92 3.92 0 0 0 3.79-2.85 9.18 9.18 0 0 0 .24-2.17 8.07 8.07 0 0 0 -.28-2.11 3.9 3.9 0 0 0 -3.72-2.77c-2.35 0-4 1.9-4 4.91.01 3.2 1.76 4.95 4.01 4.95zm8.61-14.91a1.48 1.48 0 0 1 2.95 0 1.48 1.48 0 0 1 -2.95 0zm2.52 16.8h-2.06v-13.47h2.06zm8.9-11.54h-2.87v7.68c0 2 1.33 2 2.1 2a5.54 5.54 0 0 0 .81-.07v1.89a3.94 3.94 0 0 1 -5-3.26v-8.24h-2.18v-1.93h2.18v-4.74h2.07v4.74h2.87zm10.31 9.72h-.1a4.25 4.25 0 0 1 -4 2.14c-2.56 0-4.59-1.51-4.59-4 0-4.28 5.78-4.49 8.06-4.73l.63-.07v-.18a3 3 0 0 0 -3.26-3.12 3.38 3.38 0 0 0 -3.33 2.21l-1.93-.74a5.22 5.22 0 0 1 5.23-3.3c2.73 0 5.36 1.37 5.36 5.34v8.31h-2.07zm-.42-4.85c-1.36.11-6.2.15-6.2 3a2.31 2.31 0 0 0 2.56 2.18c2.7 0 4.06-1.65 4.06-3.34v-1.82zm7.58 6.67h-2v-17.93h2z" fill="#0082ba"/><path d="m297.26 124.34c-8-2.92-11.16-5.83-11.16-10.08 0-5 4.85-7.16 9-7.16a26.37 26.37 0 0 1 10.68 1.83v-4.37a16.57 16.57 0 0 0 -12.37-5.83c-9.59 0-16 6.8-16 16 0 9 5.46 13.11 15.05 17 7.15 2.92 10.42 5.7 10.42 10.44 0 5.57-3.52 9.82-11.88 9.82-3.88 0-8.38-1.82-12.62-4.37v5a18 18 0 0 0 15.05 8c10.44 0 18.43-6.92 18.43-18-.05-10.16-6.86-15.49-14.6-18.28zm-277.35 0c-8-2.92-11.17-5.83-11.17-10.08 0-5 4.85-7.16 9-7.16a26.45 26.45 0 0 1 10.69 1.83v-4.37a16.61 16.61 0 0 0 -12.43-5.83c-9.58 0-16 6.8-16 16 0 9 5.46 13.11 15 17 7.16 2.92 10.44 5.7 10.44 10.44 0 5.57-3.53 9.82-11.89 9.82-3.88 0-8.37-1.82-12.62-4.37v5a18 18 0 0 0 15 8c10.45 0 18.45-6.92 18.45-18 .08-10.16-6.72-15.49-14.47-18.28zm107.58-24.27c-9.6 0-15.55 7.15-18.09 14v-14.37l-9.94 2.18v58.59h9.94v-35.77a15.37 15.37 0 0 1 15.06-15.42c7.4 0 10.78 4.14 10.78 10.93v40.26h10.08v-42.57a17.78 17.78 0 0 0 -17.83-17.83zm44.42-6.07-10 2.17v5.7h-3.6l-3.13 8.6h6.73v40.33c0 5.72 3.52 9.67 8.62 9.67h8.6v-.23s-7.13-1.74-7.13-9.44v-40.38h8.3l3.08-8.6h-11.38zm83.85 41.56a15.06 15.06 0 0 1 -15 14.8c-7.42 0-10.8-4-10.8-10.49v-28.13l-10.08-12.2v42.55c0 9.44 7.9 17.12 17.84 17.12 9.59 0 15.53-6.86 18.09-13.39v14.65h10.06v-60.9l-10.06 12.1zm-60.82 24.91h10.33v-60.83l-10.33 2.24zm-105.87-30.92c.19-18.34-7.28-30.3-21.85-30.3-15.17 0-24.51 15.17-24.51 30.34s7.76 30.58 24.51 30.58c6.68 0 11.53-2.92 15.3-7.77v-4.61c-4.26 2.43-7.9 4.25-13.6 4.25-10.55 0-17.54-14.15-16.45-22.45zm-21.31-21.3c7.63 0 11.88 8 12.37 13.91h-26.44c.93-6.71 5.98-13.91 14.07-13.91z" fill="#115e67"/></svg>