<svg height="18.618" viewBox="0 0 19.859 18.618" width="19.859" xmlns="http://www.w3.org/2000/svg"><path d="m7.178 5a.621.621 0 0 0 -.621.621v2.385a1.862 1.862 0 1 0 1.241 0v-2.385a.621.621 0 0 0 -.62-.621zm9.516 0a.621.621 0 0 0 -.621.621v2.385a1.862 1.862 0 1 0 1.241 0v-2.385a.621.621 0 0 0 -.62-.621zm-12.412 1.241a2.291 2.291 0 0 0 -2.282 2.282v12.813a2.291 2.291 0 0 0 2.282 2.282h15.3a2.291 2.291 0 0 0 2.282-2.282v-12.813a2.291 2.291 0 0 0 -2.282-2.282h-1.239a.621.621 0 1 0 0 1.241h1.235a1.027 1.027 0 0 1 1.041 1.041v3.51h-17.378v-3.51a1.027 1.027 0 0 1 1.041-1.041h1.235a.621.621 0 1 0 0-1.241zm4.545 0a.621.621 0 0 0 0 1.241h6.206a.621.621 0 0 0 0-1.241zm-1.648 2.9a.621.621 0 1 1 -.621.621.612.612 0 0 1 .62-.625zm9.516 0a.621.621 0 1 1 -.621.621.612.612 0 0 1 .62-.625zm-13.454 4.134h17.377v8.061a1.027 1.027 0 0 1 -1.041 1.041h-15.295a1.027 1.027 0 0 1 -1.041-1.041z" fill="#555" transform="translate(-2 -5)"/></svg>