<svg xmlns="http://www.w3.org/2000/svg" width="87.687" height="87.993" viewBox="0 0 87.687 87.993">
  <g id="Group_9" data-name="Group 9" transform="translate(-235.562 -363.672)">
    <g id="Group_6" data-name="Group 6" transform="translate(235.562 363.672)">
      <path id="Path_10" data-name="Path 10" d="M247.426,424.36l-1.709-1.709,3.585-3.585,53.38-53.353c2.651-2.65,6.037-2.747,8.749-.13q5.131,4.953,10.131,10.04a6.04,6.04,0,0,1-.007,8.381c-2.326,2.45-4.752,4.806-7.155,7.182-6.015,5.948-12.067,11.859-18.054,17.835-4.365,4.357-8.624,8.821-12.978,13.19-6.064,6.084-12.173,12.123-18.265,18.18-.23.229-.478.44-.692.636-.151-.049-.245-.052-.3-.1-1.642-1.473-1.65-1.487-3.513-.3q-8.148,5.189-16.286,10.4c-.314.2-.641.382-1.085.645-1.761-1.762-3.53-3.512-5.276-5.284-.871-.884-2.305-1.758-2.387-2.729-.089-1.057,1.05-2.249,1.732-3.332C240.629,435.04,243.986,429.776,247.426,424.36Zm63.821-35.948-12.774-12.774c-1.411,1.411-2.788,2.79-4.167,4.167q-14.524,14.5-29.066,28.989c-.781.775-.8,1.2-.007,1.978,3.669,3.587,7.274,7.24,10.906,10.866.285.285.6.541.991.89Zm-37.115,37.106L261.41,412.8l-9.826,9.826,12.722,12.722Zm-14.569,11.027-9.27-9.27c-2.735,4.316-5.413,8.546-8.094,12.774-1.885,2.973-1.887,2.971.644,5.5a3.562,3.562,0,0,1,.351.355c.475.634.914.573,1.566.141,2.864-1.9,5.775-3.726,8.669-5.578C255.445,439.176,257.461,437.889,259.563,436.546Zm41.83-63.887,12.932,12.932,3.34-3.341c2.074-2.074,2.081-2.632.061-4.808-.17-.183-.35-.356-.529-.531q-4.238-4.147-8.478-8.292a5.121,5.121,0,0,0-.563-.491,1.654,1.654,0,0,0-2.359.131C304.349,369.692,302.914,371.138,301.393,372.66Z" transform="translate(-235.562 -363.672)" fill="#555"/>
    </g>
    <path id="Path_11" data-name="Path 11" d="M356.928,465.376c-2.427-2.426-2.954-6.314-1.485-10.946a32.168,32.168,0,0,1,8.033-12.475c8.4-8.4,18.691-11.279,23.422-6.548l-2.77,2.77c-2.682-2.68-10.684-.65-17.882,6.548a28.231,28.231,0,0,0-7.069,10.889c-.99,3.123-.8,5.671.521,6.993Z" transform="translate(-76.658 -44.722)" fill="#555"/>
  </g>
</svg>
