<svg xmlns="http://www.w3.org/2000/svg" width="80.452" height="92.39" viewBox="0 0 80.452 92.39">
  <path id="Path_2" data-name="Path 2" d="M166.718,142.2a28,28,0,0,1-.211,21.9,27.615,27.615,0,0,1-12.02,13.441,28.365,28.365,0,0,1-40.3-35.294c-1.507-.446-3.025-.846-4.509-1.346a18.194,18.194,0,0,1-6.874-3.63c-3.656-3.407-3.315-8.279.76-11.21a27.377,27.377,0,0,1,11.521-4.484c4.593-.8,9.228-1.357,13.967-2.038-.342-.53-.759-1.2-1.2-1.857-1.461-2.159-3.033-4.23-3.815-6.8a17.162,17.162,0,1,1,33.383-7.695,15.684,15.684,0,0,1-2.451,11.817c-1.042,1.522-2.073,3.051-3.235,4.761,1.484.122,2.736.2,3.981.332,6.5.681,12.969,1.5,18.981,4.324a11.568,11.568,0,0,1,4.915,3.962,6.468,6.468,0,0,1-.967,8.369,17.737,17.737,0,0,1-7.028,3.965C170.061,141.25,168.472,141.676,166.718,142.2Zm-36.269-18.8c-.366,0-.667-.02-.964,0A91.826,91.826,0,0,0,113,125.8a19.176,19.176,0,0,0-7.535,3.42c-2.052,1.687-2.078,3.957.073,5.544a17.455,17.455,0,0,0,3.765,2.091,54.566,54.566,0,0,0,15.049,3.237,160.808,160.808,0,0,0,20.1.683,102.283,102.283,0,0,0,22.481-2.528c2.935-.726,5.866-1.541,8.328-3.424,2.378-1.819,2.381-3.811.059-5.662a18.354,18.354,0,0,0-6.491-3.042,68.476,68.476,0,0,0-12.545-2.268c-1.868-.183-3.742-.3-5.669-.455-.022.282-.044.447-.046.612a12.278,12.278,0,0,0,1.5,5.611,2.928,2.928,0,0,1-.974,4.072,7.774,7.774,0,0,1-2.473,1.216,39.934,39.934,0,0,1-5.563.977,27.124,27.124,0,0,1-11-1.072c-1.567-.511-3.259-1.192-3.427-3.137a6.466,6.466,0,0,1,.745-2.907A11.511,11.511,0,0,0,130.449,123.4Zm18.121,7.51c-.2-.492-.412-.991-.609-1.5-1.511-3.854-1.548-7.646.6-11.291a45.223,45.223,0,0,1,2.93-4.483,13.316,13.316,0,0,0-1.8-17.5,13.455,13.455,0,0,0-16.729-1.343,13.285,13.285,0,0,0-5.008,15.988,26.222,26.222,0,0,0,3.03,4.883c2.126,3.043,3.653,6.269,3.018,10.086-.294,1.772-.917,3.49-1.4,5.274C135.667,132.77,145.41,132.77,148.57,130.91Zm-10.267,38.8c7.376-.052,11.65-2.115,15.061-6.044A16.824,16.824,0,0,0,155,144.5a1.029,1.029,0,0,0-1.142-.569c-3.015.214-6.036.5-9.053.485-5.874-.033-11.748-.235-17.621-.416a1.266,1.266,0,0,0-1.368.764,17.284,17.284,0,0,0-2.1,7.782C123.554,162.432,131.71,169.851,138.3,169.712Zm20.618-26.21a46,46,0,0,1,1.793,6.821,28.977,28.977,0,0,1-.285,6.954,13.68,13.68,0,0,1-2.62,6.433,29.39,29.39,0,0,1-4.655,5.184,19.59,19.59,0,0,1-22.763,1.7c-10.416-6.534-12.518-15.892-8.217-27.1-1.193-.164-2.379-.37-3.573-.46a1.08,1.08,0,0,0-.867.545,43.494,43.494,0,0,0-1.526,5.433,22.916,22.916,0,0,0,2.88,16.09,24.113,24.113,0,0,0,20.7,12.424,23.143,23.143,0,0,0,14.91-4.5,24.028,24.028,0,0,0,10.435-19.739A23.443,23.443,0,0,0,163,142.867c-1.321.2-2.608.388-3.895.583A.688.688,0,0,0,158.921,143.5Z" transform="translate(-100.271 -88.861)" fill="#555"/>
</svg>
