<svg xmlns="http://www.w3.org/2000/svg" width="86.163" height="85.558" viewBox="0 0 86.163 85.558">
  <g id="Group_30" data-name="Group 30" transform="translate(-151.936 -414.69)">
    <path id="Path_26" data-name="Path 26" d="M227.875,455.772l-2.692,0-6.437,0,.649-.9a9.822,9.822,0,0,0,1.856-5.315l.011-3.264c.022-7.192.046-14.63-.02-21.939-.044-4.923-4.776-9.6-9.737-9.629q-6.252-.036-12.5-.037t-12.5.037c-4.885.03-9.579,4.575-9.659,9.353-.1,5.92-.081,11.944-.065,17.771q.01,3.714.012,7.427a1.5,1.5,0,0,0,.012.157,1.705,1.705,0,0,0,1.576,1.56l.116,0a1.7,1.7,0,0,0,1.691-1.586c.025-.329.02-.66.017-.991l-.006-7.388q0-8.142.011-16.284c.013-4.018,2.409-6.529,6.254-6.552q6.279-.036,12.557-.036c4.186,0,8.372.012,12.522.037.114-.006.227-.01.34-.01.135,0,.269.005.4.015a5.906,5.906,0,0,1,5.49,6.258c.038,8.3.038,16.716,0,24.969a5.89,5.89,0,0,1,.01.623,5.823,5.823,0,0,1-5.836,5.621l-.181,0c-1.766.07-4.426.077-6.772.083-1.216,0-2.356.006-3.322.015-.053-.005-.107-.008-.159-.008a1.7,1.7,0,0,0-1.612,1.155,1.617,1.617,0,0,0,.17,1.494,2.116,2.116,0,0,0,1.766.767s22.778,0,26.015.007c4.307,0,6.785,2.467,6.8,6.758q.033,12.054,0,24.1c-.011,4.33-2.425,6.72-6.8,6.729l-33.954,0,.629-.892a10.179,10.179,0,0,0,1.869-5.977q.006-11.943,0-23.9a10.222,10.222,0,0,0-10.212-10.232l-3.981,0-20.21,0a10.249,10.249,0,0,0-10.058,10.416q0,11.893,0,23.786a10.313,10.313,0,0,0,10.225,10.266l11.943,0,12.143,0c.29,0,.575-.025.858-.051l.1,0,.069.011a2.4,2.4,0,0,0,.378.039H227.9A10.277,10.277,0,0,0,238.1,489.9q.006-11.891,0-23.8v-.217A10.257,10.257,0,0,0,227.875,455.772Zm-34.9,34.113c0,4.493-2.372,6.877-6.846,6.894l-19.624,0q-2.184,0-4.367-.006c-4.343-.011-6.738-2.415-6.743-6.766q-.015-11.945,0-23.891c.005-4.529,2.4-6.924,6.926-6.924q5.946-.006,11.894-.006t11.894.006c4.422.005,6.86,2.455,6.866,6.9Q193,477.99,192.98,489.885Z" fill="#555"/>
    <path id="Path_14" data-name="Path 14" d="M211.131,447.258a2.193,2.193,0,0,1-1.571,2.354,2.068,2.068,0,0,1-2.473-1.078c-.516-.983-.92-2.026-1.461-2.993a1.35,1.35,0,0,0-.949-.627q-5.664-.066-11.327,0a1.362,1.362,0,0,0-.951.636c-.512.906-.894,1.884-1.364,2.816a2.161,2.161,0,0,1-2.82,1.173c-.046-.019-.092-.04-.137-.063a2.137,2.137,0,0,1-.988-2.856c.012-.026.025-.051.039-.076q4.929-10.514,9.9-21.009a2.081,2.081,0,0,1,1.995-1.3,2.24,2.24,0,0,1,2.109,1.472c1.585,3.345,3.135,6.707,4.705,10.058,1.628,3.474,3.268,6.942,4.893,10.418C210.925,446.606,211.056,447.056,211.131,447.258Zm-7.87-6.789-4.248-9.02-4.27,9.082h7.686C202.662,440.528,202.893,440.5,203.261,440.469Z" fill="#555"/>
    <path id="Path_14-2" data-name="Path 14" d="M211.131,447.258a2.193,2.193,0,0,1-1.571,2.354,2.068,2.068,0,0,1-2.473-1.078c-.516-.983-.92-2.026-1.461-2.993a1.35,1.35,0,0,0-.949-.627q-5.664-.066-11.327,0a1.362,1.362,0,0,0-.951.636c-.512.906-.894,1.884-1.364,2.816a2.161,2.161,0,0,1-2.82,1.173c-.046-.019-.092-.04-.137-.063a2.137,2.137,0,0,1-.988-2.856c.012-.026.025-.051.039-.076q4.929-10.514,9.9-21.009a2.081,2.081,0,0,1,1.995-1.3,2.24,2.24,0,0,1,2.109,1.472c1.585,3.345,3.135,6.707,4.705,10.058,1.628,3.474,3.268,6.942,4.893,10.418C210.925,446.606,211.056,447.056,211.131,447.258Zm-7.87-6.789-4.248-9.02-4.27,9.082h7.686C202.662,440.528,202.893,440.5,203.261,440.469Z" fill="#555"/>
    <path id="Path_15" data-name="Path 15" d="M207.39,478.29c.129,1.144.224,2.559.46,3.949a4.564,4.564,0,0,0,4.15,4.089,29.048,29.048,0,0,0,6.027,0,3.789,3.789,0,0,0,3.369-2.947,2.271,2.271,0,0,1,1.756-1.761,2.154,2.154,0,0,1,2.415,2.868,8.712,8.712,0,0,1-6.038,5.773,15.5,15.5,0,0,1-9.075.1A9.225,9.225,0,0,1,203.711,483a21.263,21.263,0,0,1,.086-10.32,9.527,9.527,0,0,1,8.64-7.5,15.631,15.631,0,0,1,7.192.6,9.372,9.372,0,0,1,5.788,5.3,2.231,2.231,0,0,1-.817,3.046,2.1,2.1,0,0,1-.217.11,2.163,2.163,0,0,1-2.943-1.495,4.4,4.4,0,0,0-3.948-3.152,26.719,26.719,0,0,0-5.626.1c-2.515.371-3.867,2.112-4.187,4.887C207.549,475.724,207.5,476.871,207.39,478.29Z" fill="#555"/>
    <path id="Path_15-2" data-name="Path 15" d="M207.39,478.29c.129,1.144.224,2.559.46,3.949a4.564,4.564,0,0,0,4.15,4.089,29.048,29.048,0,0,0,6.027,0,3.789,3.789,0,0,0,3.369-2.947,2.271,2.271,0,0,1,1.756-1.761,2.154,2.154,0,0,1,2.415,2.868,8.712,8.712,0,0,1-6.038,5.773,15.5,15.5,0,0,1-9.075.1A9.225,9.225,0,0,1,203.711,483a21.263,21.263,0,0,1,.086-10.32,9.527,9.527,0,0,1,8.64-7.5,15.631,15.631,0,0,1,7.192.6,9.372,9.372,0,0,1,5.788,5.3,2.231,2.231,0,0,1-.817,3.046,2.1,2.1,0,0,1-.217.11,2.163,2.163,0,0,1-2.943-1.495,4.4,4.4,0,0,0-3.948-3.152,26.719,26.719,0,0,0-5.626.1c-2.515.371-3.867,2.112-4.187,4.887C207.549,475.724,207.5,476.871,207.39,478.29Z" fill="#555"/>
    <path id="Path_17" data-name="Path 17" d="M182.738,478.04a6.655,6.655,0,0,1,2.388,6.26,6.155,6.155,0,0,1-4.384,5.316,22.22,22.22,0,0,1-5.621,1.03c-2.957.167-5.93.049-8.9.046-1.853,0-2.645-.783-2.647-2.64q-.011-9.25,0-18.5c0-.708-.03-1.418.013-2.123a2.042,2.042,0,0,1,1.941-2.138l.059,0c4.207.043,8.416.122,12.617.342a8.5,8.5,0,0,1,3.237,1.057,6.718,6.718,0,0,1,1.653,10.965C182.981,477.765,182.873,477.89,182.738,478.04Zm-14.765,8.266c3.053,0,5.981.021,8.909-.014a6.861,6.861,0,0,0,2.288-.33c.576-.216,1.357-.7,1.474-1.193.7-3-.023-4.269-2.686-4.4-3.264-.16-6.537-.132-9.807-.18-.054,0-.108.072-.178.121Zm0-10.7c3.472,0,6.861.012,10.249-.015a3.137,3.137,0,0,0,1.359-.338c.4-.2.9-.526,1.012-.9.643-2.234.492-4.395-2.335-4.528-3.357-.159-6.722-.142-10.084-.2-.053,0-.108.068-.2.131Z" fill="#555"/>
    <path id="Path_17-2" data-name="Path 17" d="M182.738,478.04a6.655,6.655,0,0,1,2.388,6.26,6.155,6.155,0,0,1-4.384,5.316,22.22,22.22,0,0,1-5.621,1.03c-2.957.167-5.93.049-8.9.046-1.853,0-2.645-.783-2.647-2.64q-.011-9.25,0-18.5c0-.708-.03-1.418.013-2.123a2.042,2.042,0,0,1,1.941-2.138l.059,0c4.207.043,8.416.122,12.617.342a8.5,8.5,0,0,1,3.237,1.057,6.718,6.718,0,0,1,1.653,10.965C182.981,477.765,182.873,477.89,182.738,478.04Zm-14.765,8.266c3.053,0,5.981.021,8.909-.014a6.861,6.861,0,0,0,2.288-.33c.576-.216,1.357-.7,1.474-1.193.7-3-.023-4.269-2.686-4.4-3.264-.16-6.537-.132-9.807-.18-.054,0-.108.072-.178.121Zm0-10.7c3.472,0,6.861.012,10.249-.015a3.137,3.137,0,0,0,1.359-.338c.4-.2.9-.526,1.012-.9.643-2.234.492-4.395-2.335-4.528-3.357-.159-6.722-.142-10.084-.2-.053,0-.108.068-.2.131Z" fill="#555"/>
  </g>
</svg>
