<svg xmlns="http://www.w3.org/2000/svg" width="72.058" height="90.092" viewBox="0 0 72.058 90.092">
  <g id="Group_5" data-name="Group 5" transform="translate(-187.504 -291.582)">
    <circle id="Ellipse_1" data-name="Ellipse 1" cx="1.642" cy="1.642" r="1.642" transform="translate(229.381 304.953)" fill="#555"/>
    <path id="Path_6" data-name="Path 6" d="M202.425,345.612c-1.979,0-3.97.019-5.96,0a8.992,8.992,0,0,1-.276-17.977c3.045-.071,6.093-.012,9.3-.012A22.651,22.651,0,0,1,202.518,306c-3.3-1.811-5.018-4.515-4.321-8.367a6.935,6.935,0,0,1,5.311-5.726c3.34-.907,6.093.243,8.2,3q11.766-6.644,23.572-.018c2.375-2.9,5.343-4.134,8.993-2.717a6.985,6.985,0,0,1,4.7,6.572c.159,3.339-1.487,5.691-4.465,7.228,2.712,7.646,1.752,14.821-2.977,21.627h.956c2.753,0,5.509-.079,8.258.029a8.986,8.986,0,0,1-.1,17.968c-2.017.039-4.035.008-6.138.008v4.5c0,1.431.014,2.861-.008,4.291a.747.747,0,0,0,.526.848,12.889,12.889,0,0,1,8.283,10.274c1.019,6.013-1.567,12.108-6.7,14.77a10.469,10.469,0,0,1-11.524-.826,1.061,1.061,0,0,0-1.227-.115,24.407,24.407,0,0,1-20.752,0,1.177,1.177,0,0,0-.99.031c-5.159,3.876-12.1,2.474-15.9-2.789-4.654-6.444-3.222-15.635,3.137-19.958.817-.556,1.765-.916,2.627-1.412.231-.133.52-.431.523-.657.033-2.888.019-5.776.013-8.664A1.359,1.359,0,0,0,202.425,345.612Zm3.083,8.9c5.522.4,9.143,3.344,11.037,8.328,1.861,4.9,1.116,9.587-1.822,13.98a22.3,22.3,0,0,0,17.6-.022,14.573,14.573,0,0,1-2.706-10.287c.553-4.739,2.722-8.519,7.072-10.723a30.159,30.159,0,0,1,4.825-1.5v-.726c0-2.969,0-5.937,0-8.906,0-1.533.509-2.035,2.042-2.041,2.132-.008,4.265.034,6.4-.02a9.8,9.8,0,0,0,2.536-.391,5.929,5.929,0,0,0,.961-10.784,6.648,6.648,0,0,0-3.493-.838c-3.859,0-7.718-.006-11.577,0a1.472,1.472,0,0,1-1.519-.838,1.509,1.509,0,0,1,.351-1.779c.109-.12.224-.234.334-.352,4.742-5.094,6.489-11.1,4.93-17.85a19.476,19.476,0,0,0-38.175,7.652,20.16,20.16,0,0,0,5.459,10.536,1.462,1.462,0,0,1,.424,1.749,1.561,1.561,0,0,1-1.585.884q-3.8-.029-7.61,0c-1.725.011-3.459-.04-5.173.118A5.946,5.946,0,0,0,196,342.534c2.53.129,5.071.051,7.607.08,1.382.016,1.9.542,1.9,1.927.008,2.294,0,4.588,0,6.882Zm9.01,13.81a12.525,12.525,0,0,0-1.451-5.929c-3.152-5.829-10.444-6.423-14.358-1.167a11.8,11.8,0,0,0,.927,14.818,8.038,8.038,0,0,0,11.464.3A11.279,11.279,0,0,0,214.518,368.321Zm35.984.373a12.085,12.085,0,0,0-2.123-7.345c-3.141-4.392-8.821-5-12.579-1.356a11.613,11.613,0,0,0,.182,16.358,7.962,7.962,0,0,0,10.868.162A10.711,10.711,0,0,0,250.5,368.694Zm-12.726-71.954a22.949,22.949,0,0,1,5.4,6.455,4.245,4.245,0,0,0,2.81-4.252,4.491,4.491,0,0,0-3.492-4.218A4.178,4.178,0,0,0,237.776,296.741Zm-33.921,6.489a22.658,22.658,0,0,1,5.376-6.474,4.315,4.315,0,0,0-4.433-2.1,4.472,4.472,0,0,0-3.721,3.922A4.345,4.345,0,0,0,203.854,303.23Z" fill="#555"/>
    <path id="Path_7" data-name="Path 7" d="M278.147,347.344a10.277,10.277,0,0,1,7.207,3.765,7.893,7.893,0,0,1-.193,10.62c-4.285,4.772-12.562,4.753-16.729-.039a8.062,8.062,0,0,1,1.2-11.927C271.788,348.1,274.145,347.309,278.147,347.344Zm-5.473,3.989a5.5,5.5,0,0,0-3.338,4.886,5.326,5.326,0,0,0,3.191,4.972,8.6,8.6,0,0,0,9.47-.573,5.16,5.16,0,0,0,2.009-6c-.846-2.238-2.957-3.786-5.919-4.1C278.088,350.522,274.807,350.091,272.675,351.333Z" transform="translate(-53.298 -37.7)" fill="#555"/>
    <path id="Path_8" data-name="Path 8" d="M287.253,445.83c0,1.43.011,2.861,0,4.291-.015,1.524-1.011,2.145-2.383,1.469q-3.734-1.84-7.442-3.734a1.312,1.312,0,0,0-1.344.014c-2.422,1.241-4.859,2.454-7.3,3.665-1.516.754-2.505.16-2.514-1.522q-.022-4.129,0-8.258c.008-1.7,1.037-2.308,2.58-1.539,2.387,1.191,4.78,2.37,7.151,3.593a1.428,1.428,0,0,0,1.491.015c2.392-1.239,4.847-2.361,7.21-3.651a1.642,1.642,0,0,1,2.575,1.61C287.163,443.124,287.253,444.481,287.253,445.83ZM269.3,443.842v4.08l4.1-2.043Zm14.911,4.068v-4.059l-4.08,2.03Z" transform="translate(-53.247 -100.269)" fill="#555"/>
    <path id="Path_9" data-name="Path 9" d="M273.922,418.123a22.944,22.944,0,0,1-11.158-2.815c-1.018-.559-1.381-1.416-.929-2.226s1.3-.95,2.328-.429a19.871,19.871,0,0,0,17.984.514c.514-.232,1-.533,1.5-.8a1.53,1.53,0,0,1,2.1.508,1.477,1.477,0,0,1-.6,2.074A22.318,22.318,0,0,1,273.922,418.123Z" transform="translate(-50.126 -81.518)" fill="#555"/>
    <circle id="Ellipse_2" data-name="Ellipse 2" cx="1.642" cy="1.642" r="1.642" transform="translate(214.408 304.953)" fill="#555"/>
    <ellipse id="Ellipse_3" data-name="Ellipse 3" cx="3.364" cy="2.102" rx="3.364" ry="2.102" transform="translate(220.153 313.617)" fill="#555"/>
  </g>
</svg>
